<?xml version="1.0" encoding="UTF-8"?>
<svg version="1.1" xmlns="http://www.w3.org/2000/svg" width="984" height="984">
<path d="M0 0 C184.8 0 369.6 0 560 0 C560 32.34 560 64.68 560 98 C498.95 98 437.9 98 375 98 C375 250.46 375 402.92 375 560 C311.97 560 248.94 560 184 560 C184 407.54 184 255.08 184 98 C123.28 98 62.56 98 0 98 C0 65.66 0 33.32 0 0 Z " fill="#4A0082" transform="translate(203,212)"/>
<path d="M0 0 C184.8 0 369.6 0 560 0 C560 32.34 560 64.68 560 98 C375.2 98 190.4 98 0 98 C0 65.66 0 33.32 0 0 Z " fill="#483C8A" transform="translate(203,212)"/>
</svg>
